Hanif_Shallow_5_0_grf.mot
version=1
nRows=37
nColumns=19
inDegrees=yes
endheader
time	right_ground_force_vx	right_ground_force_vy	right_ground_force_vz	right_ground_force_px	right_ground_force_py	right_ground_force_pz	right_ground_torque_x	right_ground_torque_y	right_ground_torque_z	left_ground_force_vx	left_ground_force_vy	left_ground_force_vz	left_ground_force_px	left_ground_force_py	left_ground_force_pz	left_ground_torque_x	left_ground_torque_y	left_ground_torque_z
0.000000	-0.760429	276.508000	53.972100	0.216648	0.000000	-1.429280	-21.214800	-1.009820	4.592990	-4.330560	288.086000	-54.569700	0.232650	0.000000	-0.975705	20.983800	-0.458886	9.890210
0.005000	-0.574662	276.538000	54.100600	0.216731	0.000000	-1.429290	-21.214100	-0.929598	4.630540	-4.560880	288.672000	-54.546000	0.232663	0.000000	-0.975311	20.914800	-0.452099	9.913270
0.010000	-0.581428	276.213000	54.123500	0.216749	0.000000	-1.429290	-21.187600	-1.044860	4.607920	-4.464060	289.118000	-54.562400	0.232145	0.000000	-0.975924	21.122600	-0.439515	9.769210
0.015000	-0.478788	276.371000	54.029800	0.217123	0.000000	-1.429250	-21.212400	-0.996155	4.725740	-4.348820	286.932000	-54.292300	0.232536	0.000000	-0.976401	21.099600	-0.455882	9.816390
0.020000	-0.646796	275.380000	53.964800	0.216337	0.000000	-1.428670	-21.295700	-0.918143	4.501600	-4.901440	287.192000	-54.252400	0.233112	0.000000	-0.975583	20.889900	-0.464569	10.003800
0.025000	-0.723868	275.474000	53.574200	0.217027	0.000000	-1.429620	-21.040200	-1.011880	4.681890	-4.551330	288.406000	-54.168100	0.232543	0.000000	-0.975488	20.945800	-0.429123	9.859140
0.030000	-0.471291	274.371000	53.581600	0.216978	0.000000	-1.429330	-21.037300	-0.945811	4.658150	-4.865680	287.940000	-54.130800	0.232802	0.000000	-0.975908	21.036700	-0.446317	9.929430
0.035000	-0.421146	273.732000	53.737800	0.216663	0.000000	-1.429140	-21.039800	-0.952786	4.556310	-4.919990	288.511000	-54.118400	0.232881	0.000000	-0.975198	20.874300	-0.464644	9.974160
0.040000	-0.222262	275.225000	53.921100	0.216142	0.000000	-1.430120	-20.884400	-0.948129	4.430790	-4.654320	286.088000	-54.439300	0.232541	0.000000	-0.975959	20.913700	-0.414885	9.790110
0.045000	0.009123	275.377000	53.802100	0.216716	0.000000	-1.429490	-21.070300	-0.941016	4.594870	-4.863600	288.000000	-54.009100	0.232716	0.000000	-0.975925	21.045400	-0.429391	9.900500
0.050000	-0.113315	274.298000	53.963700	0.216466	0.000000	-1.429570	-20.965000	-0.959461	4.504270	-5.011540	286.475000	-53.858900	0.233231	0.000000	-0.976167	21.005100	-0.389406	9.998540
0.055000	-0.315039	273.975000	53.948900	0.216618	0.000000	-1.429380	-20.992500	-0.987037	4.539970	-4.774300	286.877000	-53.820300	0.232895	0.000000	-0.975857	20.943000	-0.408563	9.910800
0.060000	0.029075	275.322000	54.265400	0.216402	0.000000	-1.429500	-21.061100	-1.002910	4.493210	-4.875470	287.620000	-53.928300	0.233331	0.000000	-0.976669	21.232200	-0.416158	10.069000
0.065000	-0.545059	276.132000	53.778000	0.216383	0.000000	-1.429770	-21.050800	-0.939491	4.520710	-5.180450	287.200000	-53.932900	0.233511	0.000000	-0.976358	21.116300	-0.461998	10.122000
0.070000	-0.198144	275.703000	53.865900	0.216823	0.000000	-1.429470	-21.100400	-0.998314	4.623040	-4.726480	287.141000	-54.033600	0.233224	0.000000	-0.975914	20.979300	-0.453177	10.027900
0.075000	-0.756149	276.693000	54.223600	0.217015	0.000000	-1.429380	-21.198700	-1.042790	4.695610	-4.936240	288.552000	-54.060200	0.233199	0.000000	-0.975819	21.056300	-0.424847	10.063000
0.080000	-1.166050	273.785000	54.026200	0.217168	0.000000	-1.428600	-21.190500	-1.009530	4.702070	-4.811440	287.251000	-53.851700	0.234029	0.000000	-0.976445	21.141300	-0.450081	10.269100
0.085000	-1.044100	275.065000	54.066200	0.217334	0.000000	-1.428520	-21.310800	-1.028850	4.765890	-5.035980	286.478000	-53.888300	0.233713	0.000000	-0.976371	21.065200	-0.428857	10.149900
0.090000	-1.076180	275.734000	54.119000	0.216939	0.000000	-1.428910	-21.255200	-1.104160	4.650070	-5.077450	288.321000	-53.806500	0.233505	0.000000	-0.975977	21.086500	-0.428981	10.145700
0.095000	-1.122340	277.681000	53.984800	0.217527	0.000000	-1.429780	-21.165600	-1.111270	4.851500	-4.799590	289.256000	-53.991500	0.234284	0.000000	-0.976858	21.407600	-0.426393	10.408000
0.100000	-1.367470	277.340000	53.765600	0.216827	0.000000	-1.429110	-21.324400	-1.033680	4.662050	-5.071320	287.832000	-53.652100	0.233854	0.000000	-0.977293	21.430100	-0.425285	10.232500
0.105000	-1.060680	277.472000	54.312600	0.217123	0.000000	-1.429060	-21.348100	-1.036870	4.746250	-4.949430	289.331000	-54.449500	0.234067	0.000000	-0.976063	21.185000	-0.450272	10.358600
0.110000	-0.791501	276.053000	54.251100	0.217452	0.000000	-1.428760	-21.323600	-1.027650	4.813900	-4.718340	289.571000	-54.186900	0.233979	0.000000	-0.976539	21.337800	-0.445435	10.332100
0.115000	-0.286953	277.354000	54.025500	0.217429	0.000000	-1.428520	-21.489300	-1.024830	4.822000	-4.844020	290.092000	-54.227400	0.233556	0.000000	-0.976600	21.393700	-0.402673	10.216300
0.120000	-0.293582	276.818000	54.067000	0.217356	0.000000	-1.428280	-21.513500	-0.991438	4.798430	-4.840150	289.207000	-54.294000	0.233935	0.000000	-0.976917	21.420900	-0.411280	10.304500
0.125000	-0.573249	276.906000	54.104600	0.217007	0.000000	-1.428420	-21.481800	-0.972009	4.707870	-4.723740	289.451000	-54.265700	0.234118	0.000000	-0.977281	21.543700	-0.438945	10.370600
0.130000	-0.374451	279.531000	54.491900	0.216776	0.000000	-1.430430	-21.124600	-0.975391	4.682860	-4.839980	289.368000	-54.197200	0.233789	0.000000	-0.976825	21.405300	-0.367928	10.256200
0.135000	-0.348732	277.515000	54.559300	0.216301	0.000000	-1.429020	-21.362600	-0.958577	4.515450	-4.944960	289.021000	-54.158100	0.234004	0.000000	-0.977116	21.466300	-0.429567	10.322000
0.140000	0.235017	277.182000	54.531000	0.216983	0.000000	-1.429070	-21.324400	-0.970218	4.695210	-5.249910	289.477000	-53.725200	0.234065	0.000000	-0.977445	21.599500	-0.500759	10.366100
0.145000	-0.213550	277.519000	53.997300	0.216539	0.000000	-1.429040	-21.358900	-0.941459	4.583730	-4.441340	289.458000	-53.909300	0.234414	0.000000	-0.977084	21.484800	-0.456138	10.453200
0.150000	-0.514908	277.347000	54.401700	0.216655	0.000000	-1.428770	-21.419000	-0.959192	4.616590	-4.958590	288.924000	-54.138900	0.233790	0.000000	-0.976950	21.410600	-0.410895	10.251100
0.155000	-0.544370	276.079000	54.460100	0.216539	0.000000	-1.429040	-21.247900	-0.952842	4.564120	-4.796070	290.341000	-54.164000	0.234021	0.000000	-0.976998	21.527900	-0.428285	10.367600
0.160000	-0.479720	276.338000	54.218300	0.217254	0.000000	-1.429040	-21.266500	-0.946110	4.773000	-4.734480	287.409000	-53.867800	0.234543	0.000000	-0.977581	21.479600	-0.473243	10.431600
0.165000	-0.653098	275.929000	54.151200	0.217524	0.000000	-1.429570	-21.088800	-0.980750	4.839040	-4.601970	290.401000	-53.834000	0.234538	0.000000	-0.977010	21.534500	-0.456961	10.522300
0.170000	-0.865674	275.647000	54.015300	0.217013	0.000000	-1.429330	-21.134100	-0.963969	4.693720	-4.557550	290.816000	-54.596100	0.233986	0.000000	-0.977327	21.656600	-0.434387	10.377200
0.175000	-0.907973	275.224000	53.882100	0.217187	0.000000	-1.428970	-21.199200	-0.988224	4.731700	-4.721660	289.443000	-53.755700	0.234476	0.000000	-0.976914	21.437800	-0.494703	10.479800
0.180000	-0.780663	276.079000	54.246300	0.216797	0.000000	-1.429440	-21.137700	-1.009390	4.629690	-4.517930	289.455000	-53.962400	0.234257	0.000000	-0.976985	21.458000	-0.541071	10.423600
